<svg height="462pt" viewBox="0 -34 462.69599 462" width="462pt" xmlns="http://www.w3.org/2000/svg"><path d="m394.257812 197.203125c0 70.929687-57.5 128.429687-128.429687 128.429687s-128.429687-57.5-128.429687-128.429687 57.5-128.425781 128.429687-128.425781 128.429687 57.496094 128.429687 128.425781zm0 0" fill="#fabe02"/><path d="m207.796875 82.648438c-43.183594 21.863281-70.40625 66.152343-70.40625 114.554687s27.222656 92.695313 70.40625 114.558594c43.183594-21.863281 70.402344-66.15625 70.402344-114.558594s-27.21875-92.691406-70.402344-114.554687zm0 0" fill="#f59a1d"/><path d="m265.847656 68.777344c-5.339844.011718-10.675781.351562-15.972656 1.023437 64.226562 8.0625 112.40625 62.671875 112.40625 127.398438 0 64.730469-48.179688 119.339843-112.40625 127.402343 47.382812 5.875 94.109375-15.027343 121.316406-54.261718 27.207032-39.234375 30.394532-90.324219 8.28125-132.636719-22.113281-42.3125-65.878906-68.863281-113.625-68.925781zm0 0" fill="#f59a1d"/><g fill="#fabe02"><path d="m265.847656 45.546875c-3.867187 0-7-3.132813-7-7v-31.199219c0-3.867187 3.132813-7 7-7 3.867188 0 7 3.132813 7 7v31.199219c0 3.867187-3.132812 7-7 7zm0 0"/><path d="m186.507812 66.804688c-2.503906.003906-4.820312-1.332032-6.070312-3.5l-15.601562-27.027344c-1.902344-3.347656-.746094-7.597656 2.585937-9.523438 3.332031-1.921875 7.59375-.796875 9.539063 2.523438l15.597656 27.027344c1.25 2.164062 1.246094 4.828124 0 6.992187s-3.550782 3.5-6.050782 3.507813zm0 0"/><path d="m128.425781 124.875c-1.226562 0-2.433593-.324219-3.492187-.9375l-27.035156-15.601562c-2.183594-1.242188-3.53125-3.558594-3.539063-6.070313-.003906-2.511719 1.335937-4.832031 3.515625-6.085937 2.175781-1.25 4.859375-1.238282 7.023438.03125l27.035156 15.601562c2.746094 1.582031 4.085937 4.816406 3.261718 7.878906-.820312 3.0625-3.601562 5.191406-6.769531 5.183594zm0 0"/><path d="m403.234375 124.875c-3.167969.007812-5.949219-2.121094-6.769531-5.183594-.824219-3.0625.515625-6.296875 3.261718-7.878906l27.035157-15.601562c3.34375-1.902344 7.597656-.746094 9.519531 2.585937 1.925781 3.332031.796875 7.59375-2.519531 9.539063l-27.035157 15.601562c-1.058593.613281-2.265624.9375-3.492187.9375zm0 0"/><path d="m345.148438 66.804688c-2.5-.003907-4.804688-1.339844-6.054688-3.503907-1.25-2.164062-1.25-4.832031 0-6.996093l15.597656-27.027344c1.945313-3.320313 6.207032-4.445313 9.539063-2.523438 3.332031 1.925782 4.488281 6.175782 2.585937 9.523438l-15.601562 27.027344c-1.25 2.167968-3.5625 3.503906-6.066406 3.5zm0 0"/><path d="m265.847656 394.066406c-3.867187 0-7-3.132812-7-7v-31.199218c0-3.863282 3.132813-7 7-7 3.867188 0 7 3.136718 7 7v31.199218c0 3.867188-3.132812 7-7 7zm0 0"/><path d="m455.695312 204.203125h-31.199218c-3.867188 0-7-3.132813-7-7 0-3.863281 3.132812-7 7-7h31.199218c3.867188 0 7 3.136719 7 7 0 3.867187-3.132812 7-7 7zm0 0"/><path d="m107.171875 204.203125h-31.199219c-3.867187 0-7-3.132813-7-7 0-3.863281 3.132813-7 7-7h31.199219c3.867187 0 7 3.136719 7 7 0 3.867187-3.132813 7-7 7zm0 0"/><path d="m360.769531 368.632812c-2.507812.003907-4.820312-1.332031-6.074219-3.5l-15.597656-27.027343c-1.273437-2.167969-1.285156-4.851563-.03125-7.027344 1.25-2.179687 3.570313-3.519531 6.082032-3.515625 2.511718.007812 4.828124 1.359375 6.070312 3.542969l15.601562 27.027343c1.246094 2.164063 1.246094 4.828126-.003906 6.996094-1.246094 2.164063-3.554687 3.5-6.050781 3.503906zm0 0"/><path d="m430.246094 299.140625c-1.222656 0-2.429688-.324219-3.488282-.941406l-27.035156-15.597657c-2.183594-1.242187-3.535156-3.558593-3.539062-6.070312s1.335937-4.835938 3.515625-6.085938c2.175781-1.25 4.859375-1.238281 7.023437.03125l27.035156 15.597657c2.746094 1.585937 4.085938 4.820312 3.261719 7.882812-.820312 3.0625-3.601562 5.1875-6.773437 5.183594zm0 0"/><path d="m101.40625 299.140625c-3.167969.003906-5.949219-2.121094-6.769531-5.183594-.824219-3.0625.515625-6.296875 3.261719-7.882812l27.035156-15.597657c2.164062-1.269531 4.847656-1.28125 7.023437-.03125 2.179688 1.25 3.519531 3.574219 3.515625 6.085938-.007812 2.511719-1.355468 4.828125-3.539062 6.070312l-27.035156 15.597657c-1.058594.617187-2.265626.941406-3.492188.941406zm0 0"/><path d="m170.886719 368.632812c-2.496094-.003906-4.804688-1.339843-6.054688-3.503906-1.246093-2.167968-1.246093-4.832031 0-6.996094l15.601563-27.027343c1.238281-2.183594 3.554687-3.535157 6.066406-3.542969 2.515625-.003906 4.835938 1.335938 6.085938 3.515625 1.253906 2.175781 1.242187 4.859375-.03125 7.027344l-15.597657 27.027343c-1.25 2.167969-3.566406 3.503907-6.070312 3.5zm0 0"/></g><path d="m256.855469 197.203125c0 70.929687-57.5 128.429687-128.425781 128.429687-70.929688 0-128.429688-57.5-128.429688-128.429687s57.5-128.425781 128.429688-128.425781c70.925781 0 128.425781 57.496094 128.425781 128.425781zm0 0" fill="#d9ecf2"/><path d="m128.429688 68.777344c-6.167969.003906-12.328126.449218-18.429688 1.335937 63.195312 9.09375 110.105469 63.242188 110.105469 127.089844 0 63.84375-46.910157 117.992187-110.105469 127.089844 47.597656 6.90625 95.066406-13.355469 122.996094-52.511719 27.933594-39.152344 31.644531-90.632812 9.621094-133.390625-22.023438-42.753906-66.09375-69.621094-114.1875-69.613281zm0 0" fill="#bdd9e5"/><path d="m159.070312 138.78125c0 9.714844-7.875 17.589844-17.589843 17.589844-9.714844 0-17.59375-7.875-17.59375-17.589844 0-9.71875 7.878906-17.59375 17.59375-17.59375 9.714843 0 17.589843 7.875 17.589843 17.59375zm0 0" fill="#bdd9e5"/><path d="m224.050781 111.496094c-9.75 6.867187-12.453125 20.144531-6.167969 30.28125 6.28125 10.132812 19.378907 13.613281 29.863282 7.929687-5.585938-14.03125-13.609375-26.964843-23.695313-38.210937zm0 0" fill="#d9ecf2"/><path d="m114.914062 221.59375c0 17.324219-14.042968 31.371094-31.371093 31.371094-17.324219 0-31.371094-14.046875-31.371094-31.371094 0-17.328125 14.046875-31.375 31.371094-31.375 17.328125 0 31.371093 14.046875 31.371093 31.375zm0 0" fill="#bdd9e5"/><path d="m211.300781 239.320312c0 9.789063-7.9375 17.726563-17.730469 17.726563-9.789062 0-17.726562-7.9375-17.726562-17.726563 0-9.792968 7.9375-17.726562 17.726562-17.726562 9.792969 0 17.730469 7.933594 17.730469 17.726562zm0 0" fill="#bdd9e5"/><path d="m131.609375 281.945312h-99.636719c6.742188 7.675782 14.371094 14.523438 22.726563 20.398438h76.910156c5.632813 0 10.199219-4.566406 10.199219-10.199219 0-5.632812-4.566406-10.199219-10.199219-10.199219zm0 0" fill="#bdd9e5"/><path d="m5.152344 161.203125h32.652344c5.632812 0 10.199218-4.566406 10.199218-10.199219 0-5.632812-4.566406-10.199218-10.199218-10.199218h-24.777344c-3.203125 6.5625-5.839844 13.386718-7.875 20.398437zm0 0" fill="#bdd9e5"/><path d="m255.675781 180.027344h-34.570312c-5.636719 0-10.203125 4.566406-10.203125 10.199218 0 5.632813 4.566406 10.203126 10.203125 10.203126h35.667969c.027343-1.070313.078124-2.132813.078124-3.203126-.007812-5.75-.402343-11.496093-1.175781-17.199218zm0 0" fill="#bdd9e5"/><path d="m256.5625 188.957031c-.023438-.355469-.054688-.710937-.078125-1.066406-.199219-2.636719-.457031-5.265625-.800781-7.863281h-34.578125c-.753907.007812-1.5.09375-2.234375.265625.746094 5.605469 1.121094 11.253906 1.125 16.910156 0 1.035156-.046875 2.0625-.070313 3.089844.394531.0625.796875.101562 1.199219.117187h35.667969c.027343-1.066406.078125-2.128906.078125-3.199218-.015625-2.777344-.128906-5.527344-.308594-8.253907zm0 0" fill="#d9ecf2"/></svg>