<svg height="480pt" viewBox="-60 0 480 480" width="480pt" xmlns="http://www.w3.org/2000/svg"><path d="m8 8h96v80h-96zm0 0" fill="#348fd9"/><path d="m104 12-76 76h76zm0 0" fill="#3086cd"/><path d="m56 248c0 26.398438 21.601562 48 48 48v-72h-48zm0 0" fill="#d6d6d4"/><path d="m67.199219 279.199219 36.800781-21.597657v-18.402343l-44.800781 26.402343c1.601562 4.796876 4.800781 9.597657 8 13.597657zm0 0" fill="#c7c7c5"/><path d="m176 112h128c17.601562 0 32 14.398438 32 32v136c0 17.601562-14.398438 32-32 32h-128c-17.601562 0-32-14.398438-32-32v-136c0-17.601562 14.398438-32 32-32zm0 0" fill="#bfbfbd"/><path d="m145.601562 290.398438c4 12.800781 16.796876 21.601562 30.398438 21.601562h128c17.601562 0 32-14.398438 32-32v-136c0-5.601562-1.601562-11.199219-4.800781-16-36.800781 89.601562-122.398438 138.398438-185.597657 162.398438zm0 0" fill="#b0b0ae"/><path d="m320 88c0 44.183594-35.816406 80-80 80s-80-35.816406-80-80 35.816406-80 80-80 80 35.816406 80 80zm0 0" fill="#4db7e5"/><path d="m320 88c0 44.183594-35.816406 80-80 80s-80-35.816406-80-80 35.816406-80 80-80 80 35.816406 80 80zm0 0" fill="#4db7e5"/><path d="m240 45.601562c36.800781 0 68 16.796876 80 40-1.601562-44.800781-38.398438-79.203124-82.398438-77.601562-41.601562 1.601562-76 35.199219-76.800781 76.800781 11.199219-23.199219 42.398438-39.199219 79.199219-39.199219zm0 0" fill="#e0e0de"/><path d="m305.601562 41.601562c8.796876 12.796876 13.597657 28 14.398438 43.199219-8-14.402343-20.800781-25.601562-36.800781-31.199219-27.199219 47.199219-72 69.597657-108.800781 80 26.402343 36 76 43.199219 112 17.597657 35.203124-24.800781 43.203124-73.597657 19.203124-109.597657zm0 0" fill="#48add9"/><path d="m283.199219 54.398438c15.199219 5.601562 28 16.800781 36.800781 31.203124-.800781-15.203124-5.601562-30.402343-14.398438-43.203124-1.601562-2.398438-3.203124-4.796876-4.800781-6.398438-1.601562-2.398438-3.199219-4-4.800781-5.601562l-.800781-.796876c-4 8.796876-7.199219 16.796876-12 24.796876zm0 0" fill="#d6d6d4"/><path d="m200 88c0-2.398438 0-4.800781.800781-6.398438l-16-2.402343c-.800781 6.402343-.800781 12.800781 0 18.402343l16-2.402343c-.800781-2.398438-.800781-4.800781-.800781-7.199219zm0 0" fill="#79c6e8"/><path d="m205.601562 108-13.601562 8c6.398438 11.199219 17.601562 20 29.601562 24.800781l5.597657-15.199219c-9.597657-3.203124-16.800781-9.601562-21.597657-17.601562zm0 0" fill="#79c6e8"/><path d="m176 168h128v144h-128zm0 0" fill="#e0e0de"/><path d="m176 296v16h128v-124c-29.601562 49.601562-74.398438 87.199219-128 108zm0 0" fill="#d6d6d4"/><path d="m336 328h-16c-8.800781 0-16-7.199219-16-16v-144c26.398438 0 48 21.601562 48 48v96c0 8.800781-7.199219 16-16 16zm0 0" fill="#d6d6d4"/><g fill="#c7c7c5"><path d="m304 240h48v16h-48zm0 0"/><path d="m304 272h48v16h-48zm0 0"/><path d="m304 208v16h48v-8c0-2.398438 0-5.601562-.800781-8zm0 0"/><path d="m176 400h64v16h-64zm0 0"/></g><path d="m176 312v128h-8c-8.800781 0-16 7.199219-16 16s7.199219 16 16 16h72v-160zm0 0" fill="#d6d6d4"/><path d="m176 376h64v16h-64zm0 0" fill="#c7c7c5"/><path d="m176 408h64v16h-64zm0 0" fill="#c7c7c5"/><path d="m129.601562 196.800781-25.601562 51.199219v48h2.398438c18.402343 0 34.402343-10.398438 43.203124-26.398438l26.398438-53.601562v-48c-20 0-37.601562 11.199219-46.398438 28.800781zm0 0" fill="#d6d6d4"/><path d="m116.667969 223.679688 7.15625-14.3125 45.078125 22.539062-7.15625 14.3125zm0 0" fill="#c7c7c5"/><path d="m104 248-3.199219 7.199219 3.199219 1.601562 40 20c1.601562-2.402343 3.199219-4.800781 4.800781-8l3.199219-6.402343-44.800781-22.398438zm0 0" fill="#c7c7c5"/><path d="m176 344h64v16h-64zm0 0" fill="#c7c7c5"/><path d="m240 400h64v16h-64zm0 0" fill="#c7c7c5"/><path d="m304 312v128h8c8.800781 0 16 7.199219 16 16s-7.199219 16-16 16h-72v-160zm0 0" fill="#d6d6d4"/><path d="m240 376h64v16h-64zm0 0" fill="#c7c7c5"/><path d="m240 408h64v16h-64zm0 0" fill="#c7c7c5"/><path d="m240 344h64v16h-64zm0 0" fill="#c7c7c5"/><path d="m96 0h16v480h-16zm0 0" fill="#bfbfbd"/><path d="m120 208v-16c0-8.800781-7.199219-16-16-16h-16c-17.601562 0-32 14.398438-32 32v16h48c8.800781 0 16-7.199219 16-16zm0 0" fill="#d6d6d4"/><path d="m208 208h64v48h-64zm0 0" fill="#ebebe9"/><path d="m208 240h64v16h-64zm0 0" fill="#c7c7c5"/><path d="m176 312h128v16h-128zm0 0" fill="#c7c7c5"/><path d="m232 312h16v160h-16zm0 0" fill="#b0b0ae"/><path d="m200 88c0-2.398438 0-4.800781.800781-6.398438l-16-2.402343c-.800781 6.402343-.800781 12.800781 0 18.402343l16-2.402343c-.800781-2.398438-.800781-4.800781-.800781-7.199219zm0 0"/><path d="m221.601562 140.800781 5.597657-15.199219c-8.800781-3.203124-16.800781-9.601562-21.597657-17.601562l-13.601562 8c6.398438 11.199219 16.800781 20 29.601562 24.800781zm0 0"/><path d="m200 208v48c0 4.800781 3.199219 8 8 8h64c4.800781 0 8-3.199219 8-8v-48c0-4.800781-3.199219-8-8-8h-64c-4.800781 0-8 3.199219-8 8zm16 8h48v32h-48zm0 0"/><path d="m344 176.800781v-32.800781c0-13.601562-7.199219-26.398438-19.199219-33.601562.800781-3.199219 3.199219-18.398438 3.199219-22.398438 0-2.398438 0-7.199219 0-7.199219v-2.402343c-5.601562-44-43.199219-78.398438-88-78.398438s-82.398438 34.398438-87.199219 78.398438v2.402343s0 18.398438 3.199219 28.800781c-12.800781 8-20 20.796876-20 34.398438v31.199219c-3.199219 3.199219-6.398438 6.402343-8.800781 10.402343-2.398438-7.203124-8-13.601562-15.199219-16v-161.601562c0-4.800781-3.199219-8-8-8h-96c-4.800781 0-8 3.199219-8 8v80c0 4.800781 3.199219 8 8 8h88v72h-8c-22.398438 0-40 17.601562-40 40v40c0 28 20.800781 51.199219 48 55.199219v176.800781h16v-176c9.601562-.800781 18.398438-4 26.398438-9.601562 4.800781 12.800781 16 22.402343 29.601562 25.601562v112c-13.601562 0-24 10.398438-24 24s10.398438 24 24 24h144c13.601562 0 24-10.398438 24-24s-10.398438-24-24-24v-97.601562c2.398438.800781 5.601562 1.601562 8 1.601562h16c13.601562 0 24-10.398438 24-24v-96c0-14.398438-5.601562-28.800781-16-39.199219zm-.800781 31.199219h-31.199219v-31.199219c16 3.199219 28 15.199219 31.199219 31.199219zm-103.199219-192c28.800781 0 53.601562 16.800781 64.800781 41.601562-18.402343-13.601562-40.800781-20.800781-64.800781-20.800781s-46.398438 7.199219-64.800781 20.800781c11.199219-24.800781 36-41.601562 64.800781-41.601562zm-72 72c0-.800781 0-2.398438 0-3.199219 18.398438-20.800781 44-32.800781 72-32.800781 27.199219 0 53.601562 12 72 32.800781 0 .800781-.800781 14.398438-.800781 14.398438-5.597657 34.402343-35.199219 60.800781-71.199219 60.800781s-65.601562-26.398438-71.199219-60c-.800781-4-.800781-8-.800781-12zm80 288v-16h48v16zm48 16v16h-48v-16zm-48-48v-24h48v24zm-64-40v-128h112v128zm-32-160c0-7.199219 3.199219-13.601562 8.800781-18.398438 6.398438 13.597657 16.800781 25.597657 28.800781 34.398438h-13.601562c-8 0-16.800781 1.601562-24 4.800781zm-15.199219 56c6.398438-12 17.597657-20.800781 31.199219-23.199219v37.597657l-6.398438 13.601562-30.402343-15.199219zm-120.800781-120v-64h80v64zm80 207.199219c-8-1.597657-16-6.398438-21.601562-12l21.601562-12.800781zm8-71.199219c-4.800781 0-8 3.199219-8 8v19.199219l-29.601562 17.601562c-1.597657-4-2.398438-8-2.398438-12.800781v-40c0-13.601562 10.398438-24 24-24h16c4.800781 0 8 3.199219 8 8v16c0 4.800781-3.199219 8-8 8zm8 72v-26.398438l24.800781 12.796876c-5.601562 6.402343-15.199219 12-24.800781 13.601562zm33.601562-28-30.402343-15.199219 8.800781-17.601562 30.398438 15.199219zm6.398438 20c1.601562-2.398438 3.199219-4.800781 4-7.199219l12-23.199219v52.796876c-9.601562-3.199219-16-12-16-22.398438zm80 184h-64c-4.800781 0-8-3.199219-8-8s3.199219-8 8-8h8c4.800781 0 8-3.199219 8-8v-16h48zm0-56h-48v-16h48zm0-32h-48v-16h48zm0-32h-48v-24h48zm88 112c0 4.800781-3.199219 8-8 8h-64v-40h48v16c0 4.800781 3.199219 8 8 8h8c4.800781 0 8 3.199219 8 8zm-16-296h-13.601562c12.800781-8.800781 22.402343-20.800781 28.800781-34.398438 5.601562 4.796876 8.800781 11.199219 8.800781 18.398438v21.601562c-7.199219-4-16-5.601562-24-5.601562zm40 152c0 4.800781-3.199219 8-8 8h-16c-4.800781 0-8-3.199219-8-8v-24h32zm0-40h-32v-16h32zm0-32h-32v-16h32zm0 0"/></svg>