<?xml version="1.0" encoding="iso-8859-1"?>
<!-- Generator: Adobe Illustrator 21.0.0, SVG Export Plug-In . SVG Version: 6.00 Build 0)  -->
<svg version="1.1" id="Capa_1" xmlns="http://www.w3.org/2000/svg" xmlns:xlink="http://www.w3.org/1999/xlink" x="0px" y="0px"
	 viewBox="0 0 617.547 617.547" style="enable-background:new 0 0 617.547 617.547;" xml:space="preserve">
<g>
	<g>
		<g id="filled_outline_31_">
			<path style="fill:#D0D7DF;" d="M329.358,432.283h-41.17V82.34c0-11.373,9.212-20.585,20.585-20.585l0,0
				c11.373,0,20.585,9.212,20.585,20.585V432.283z"/>
			<rect x="247.019" y="432.283" style="fill:#D0D7DF;" width="123.509" height="41.17"/>
			<polygon style="fill:#C3C9D1;" points="288.188,473.452 288.188,483.745 288.188,514.622 329.358,514.622 329.358,473.452 			"/>
			<circle style="fill:#C3C9D1;" cx="308.773" cy="82.34" r="20.585"/>
			<rect x="205.849" y="164.679" style="fill:#2A90DE;" width="41.17" height="82.34"/>
			<rect x="370.528" y="164.679" style="fill:#2A90DE;" width="41.17" height="82.34"/>
			<path style="fill:#C3C9D1;" d="M349.943,329.358L349.943,329.358c11.373,0,20.585,9.212,20.585,20.585l0,0
				c0,11.373-9.212,20.585-20.585,20.585l0,0c-11.373,0-20.585-9.212-20.585-20.585l0,0
				C329.358,338.57,338.57,329.358,349.943,329.358z"/>
			<rect x="267.604" y="288.188" style="fill:#C3C9D1;" width="20.585" height="41.17"/>
			<rect x="10.292" y="20.585" style="fill:#2A90DE;" width="154.387" height="267.604"/>
			<polygon style="fill:#2379BA;" points="10.292,247.019 10.292,288.188 164.679,288.188 164.679,92.632 			"/>
			<rect x="10.292" y="329.358" style="fill:#2A90DE;" width="154.387" height="267.604"/>
			<polygon style="fill:#2379BA;" points="10.292,555.792 10.292,596.962 164.679,596.962 164.679,401.405 			"/>
			<rect x="328.926" y="288.188" style="fill:#C3C9D1;" width="18.012" height="41.17"/>
			<rect x="452.867" y="20.585" style="fill:#2A90DE;" width="154.387" height="267.604"/>
			<polygon style="fill:#2379BA;" points="452.867,247.019 452.867,288.188 607.254,288.188 607.254,92.632 			"/>
			<rect x="452.867" y="329.358" style="fill:#2A90DE;" width="154.387" height="267.604"/>
			<polygon style="fill:#2379BA;" points="452.867,555.792 452.867,596.962 607.254,596.962 607.254,401.405 			"/>
			<rect x="329.358" y="288.188" style="fill:#D0D7DF;" width="123.509" height="41.17"/>
			<rect x="452.867" y="288.188" style="fill:#C3C9D1;" width="102.924" height="41.17"/>
			<rect x="164.679" y="288.188" style="fill:#D0D7DF;" width="123.509" height="41.17"/>
			<rect x="61.755" y="288.188" style="fill:#C3C9D1;" width="102.924" height="41.17"/>
			<path d="M607.254,10.292H452.867c-5.681,0-10.292,4.611-10.292,10.292v257.311H339.651v-61.755h20.585v30.877
				c0,5.681,4.611,10.292,10.292,10.292h41.17c5.681,0,10.292-4.611,10.292-10.292v-82.34c0-5.681-4.611-10.292-10.292-10.292
				h-41.17c-5.681,0-10.292,4.611-10.292,10.292v30.877h-20.585v-61.755h82.34v-20.585h-82.34V82.34
				c0-17.055-13.823-30.877-30.877-30.877c-17.055,0-30.877,13.823-30.877,30.877v30.877h-82.34v20.585h82.34v61.755h-20.585
				v-30.877c0-5.681-4.611-10.292-10.292-10.292h-41.17c-5.681,0-10.292,4.611-10.292,10.292v82.34
				c0,5.681,4.611,10.292,10.292,10.292h41.17c5.681,0,10.292-4.611,10.292-10.292v-30.877h20.585v61.755H174.972V20.585
				c0-5.681-4.611-10.292-10.292-10.292H10.292C4.611,10.292,0,14.903,0,20.585v267.604c0,5.681,4.611,10.292,10.292,10.292h41.17
				v20.585h-41.17C4.611,319.066,0,323.677,0,329.358v267.604c0,5.681,4.611,10.292,10.292,10.292h154.387
				c5.681,0,10.292-4.611,10.292-10.292V339.651h102.924v82.34h-30.877c-5.681,0-10.292,4.611-10.292,10.292v41.17
				c0,5.681,4.611,10.292,10.292,10.292h30.877v30.877c0,5.681,4.611,10.292,10.292,10.292h41.17
				c5.681,0,10.292-4.611,10.292-10.292v-30.877h30.877c5.681,0,10.292-4.611,10.292-10.292v-41.17
				c0-5.681-4.611-10.292-10.292-10.292h-30.877v-43.064c3.294,1.215,6.783,1.863,10.292,1.894
				c17.055,0,30.877-13.823,30.877-30.877c-0.031-3.51-0.679-6.999-1.894-10.292h63.648v257.311c0,5.681,4.611,10.292,10.292,10.292
				h154.387c5.681,0,10.292-4.611,10.292-10.292V329.358c0-5.681-4.611-10.292-10.292-10.292h-41.17v-20.585h41.17
				c5.681,0,10.292-4.611,10.292-10.292V20.585C617.547,14.903,612.936,10.292,607.254,10.292z M380.82,174.972h20.585v20.585
				H380.82V174.972z M380.82,216.141h20.585v20.585H380.82V216.141z M236.726,236.726h-20.585v-20.585h20.585V236.726z
				 M236.726,195.556h-20.585v-20.585h20.585V195.556z M51.462,586.669H20.585V339.651h30.877V586.669z M51.462,277.896H20.585
				V30.877h30.877V277.896z M72.047,30.877h30.877v247.019H72.047V30.877z M102.924,586.669H72.047V339.651h30.877V586.669z
				 M154.387,586.669h-30.877V339.651h30.877V586.669z M154.387,319.066h-82.34v-20.585h82.34V319.066z M154.387,277.896h-30.877
				V30.877h30.877V277.896z M308.773,72.047c5.681,0,10.292,4.611,10.292,10.292s-4.611,10.292-10.292,10.292
				s-10.292-4.611-10.292-10.292S303.092,72.047,308.773,72.047z M298.481,329.358V111.323c6.628,2.522,13.957,2.522,20.585,0
				V421.99h-20.585V329.358z M174.972,319.066v-20.585h102.924v20.585H174.972z M319.066,504.33h-20.585v-20.585h20.585V504.33z
				 M360.236,442.575v20.585H257.311v-20.585H360.236z M349.943,360.236c-5.681,0-10.292-4.611-10.292-10.292
				c0-5.681,4.611-10.292,10.292-10.292c5.681,0,10.292,4.611,10.292,10.292C360.236,355.624,355.624,360.236,349.943,360.236z
				 M442.575,319.066H339.651v-20.585h102.924V319.066z M463.16,30.877h30.877v247.019H463.16V30.877z M494.037,586.669H463.16
				V339.651h30.877V586.669z M545.5,586.669h-30.877V339.651H545.5V586.669z M545.5,319.066h-82.34v-20.585h82.34V319.066z
				 M545.5,277.896h-30.877V30.877H545.5V277.896z M596.962,339.651v247.019h-30.877V339.651H596.962z M596.962,277.896h-30.877
				V30.877h30.877V277.896z"/>
		</g>
	</g>
</g>
<g>
</g>
<g>
</g>
<g>
</g>
<g>
</g>
<g>
</g>
<g>
</g>
<g>
</g>
<g>
</g>
<g>
</g>
<g>
</g>
<g>
</g>
<g>
</g>
<g>
</g>
<g>
</g>
<g>
</g>
</svg>
